<?xml version="1.0" encoding="UTF-8" standalone="no"?>
<!DOCTYPE svg PUBLIC "-//W3C//DTD SVG 1.1//EN"
 "http://www.w3.org/Graphics/SVG/1.1/DTD/svg11.dtd">
<!-- Generated by graphviz version 2.38.0 (20140413.2041)
 -->
<!-- Title: G Pages: 1 -->
<svg width="230pt" height="222pt"
 viewBox="0.00 0.00 230.00 222.00" xmlns="http://www.w3.org/2000/svg" xmlns:xlink="http://www.w3.org/1999/xlink">
<g id="graph0" class="graph" transform="scale(1 1) rotate(0) translate(4 218)">
<title>G</title>
<polygon fill="white" stroke="none" points="-4,4 -4,-218 226,-218 226,4 -4,4"/>
<g id="clust1" class="cluster"><title>cluster_Global</title>
<path fill="none" stroke="gray" d="M20,-8C20,-8 202,-8 202,-8 208,-8 214,-14 214,-20 214,-20 214,-194 214,-194 214,-200 208,-206 202,-206 202,-206 20,-206 20,-206 14,-206 8,-200 8,-194 8,-194 8,-20 8,-20 8,-14 14,-8 20,-8"/>
<text text-anchor="middle" x="111" y="-193.2" font-family="Times,serif" font-size="11.00" fill="gray">Global</text>
</g>
<g id="clust2" class="cluster"><title>cluster_\Mos</title>
<path fill="none" stroke="gray" d="M28,-16C28,-16 194,-16 194,-16 200,-16 206,-22 206,-28 206,-28 206,-166 206,-166 206,-172 200,-178 194,-178 194,-178 28,-178 28,-178 22,-178 16,-172 16,-166 16,-166 16,-28 16,-28 16,-22 22,-16 28,-16"/>
<text text-anchor="middle" x="111" y="-165.2" font-family="Times,serif" font-size="11.00" fill="gray">Mos</text>
</g>
<g id="clust3" class="cluster"><title>cluster_\Mos\Database</title>
<path fill="none" stroke="gray" d="M36,-24C36,-24 186,-24 186,-24 192,-24 198,-30 198,-36 198,-36 198,-138 198,-138 198,-144 192,-150 186,-150 186,-150 36,-150 36,-150 30,-150 24,-144 24,-138 24,-138 24,-36 24,-36 24,-30 30,-24 36,-24"/>
<text text-anchor="middle" x="111" y="-137.2" font-family="Times,serif" font-size="11.00" fill="gray">Database</text>
</g>
<!-- \\Mos\\Database\\CDatabaseBasic -->
<g id="node1" class="node"><title>\\Mos\\Database\\CDatabaseBasic</title>
<polygon fill="none" stroke="black" points="166.5,-122 55.5,-122 55.5,-86 166.5,-86 166.5,-122"/>
<text text-anchor="middle" x="111" y="-101.2" font-family="Courier,monospace" font-size="11.00">CDatabaseBasic</text>
</g>
<!-- \\Mos\\Database\\TSQLQueryBuilderBasic -->
<g id="node2" class="node"><title>\\Mos\\Database\\TSQLQueryBuilderBasic</title>
<polygon fill="none" stroke="black" points="190,-68 32,-68 32,-32 190,-32 190,-68"/>
<text text-anchor="middle" x="111" y="-47.2" font-family="Courier,monospace" font-size="11.00">TSQLQueryBuilderBasic</text>
</g>
</g>
</svg>
